<?xml version="1.0" encoding="UTF-8" standalone="no" ?>
<!DOCTYPE svg PUBLIC "-//W3C//DTD SVG 1.1//EN" "http://www.w3.org/Graphics/SVG/1.1/DTD/svg11.dtd">
<svg xmlns="http://www.w3.org/2000/svg" xmlns:xlink="http://www.w3.org/1999/xlink" version="1.1" width="447.33253906249996" height="91.82000000000001" xml:space="preserve">
<desc>Created with Fabric.js 1.6.0-rc.1</desc>
<defs></defs>
  <g transform="translate(259.11 26.3) scale(0.61 0.61)">
   <text font-family="Open Sans" font-size="40" font-weight="bold" style="stroke: none; stroke-width: 1; stroke-dasharray: none; stroke-linecap: butt; stroke-linejoin: miter; stroke-miterlimit: 10; fill: #ffffff; fill-rule: nonzero; opacity: 1;" ><tspan x="-292.67" y="8.98" style="stroke: none; stroke-width: 0; stroke-dasharray: none; stroke-linecap: butt; stroke-linejoin: miter; stroke-miterlimit: 4; fill: #ffffff; fill-rule: ; opacity: 1;">D</tspan><tspan x="-263.51" y="8.98" style="stroke: none; stroke-width: 0; stroke-dasharray: none; stroke-linecap: butt; stroke-linejoin: miter; stroke-miterlimit: 4; fill: #ffffff; fill-rule: ; opacity: 1;">i</tspan><tspan x="-253.39" y="8.98" style="stroke: none; stroke-width: 0; stroke-dasharray: none; stroke-linecap: butt; stroke-linejoin: miter; stroke-miterlimit: 4; fill: #ffffff; fill-rule: ; opacity: 1;">s</tspan><tspan x="-234.31" y="8.98" style="stroke: none; stroke-width: 0; stroke-dasharray: none; stroke-linecap: butt; stroke-linejoin: miter; stroke-miterlimit: 4; fill: #ffffff; fill-rule: ; opacity: 1;">h</tspan><tspan x="-209.76" y="8.98" style="stroke: none; stroke-width: 0; stroke-dasharray: none; stroke-linecap: butt; stroke-linejoin: miter; stroke-miterlimit: 4; fill: #ffffff; fill-rule: ; opacity: 1;">a</tspan><tspan x="-187.51" y="8.98" style="stroke: none; stroke-width: 0; stroke-dasharray: none; stroke-linecap: butt; stroke-linejoin: miter; stroke-miterlimit: 4; fill: #ffffff; fill-rule: ; opacity: 1;">r</tspan><tspan x="-171.18" y="8.98" style="stroke: none; stroke-width: 0; stroke-dasharray: none; stroke-linecap: butt; stroke-linejoin: miter; stroke-miterlimit: 4; fill: #ffffff; fill-rule: ; opacity: 1;">i</tspan><tspan x="-161.06" y="8.98" style="stroke: none; stroke-width: 0; stroke-dasharray: none; stroke-linecap: butt; stroke-linejoin: miter; stroke-miterlimit: 4; fill: #ffffff; fill-rule: ; opacity: 1;"> </tspan><tspan x="-150.67" y="8.98" style="stroke: none; stroke-width: 0; stroke-dasharray: none; stroke-linecap: butt; stroke-linejoin: miter; stroke-miterlimit: 4; fill: #ffffff; fill-rule: ; opacity: 1;">I</tspan><tspan x="-139.52" y="8.98" style="stroke: none; stroke-width: 0; stroke-dasharray: none; stroke-linecap: butt; stroke-linejoin: miter; stroke-miterlimit: 4; fill: #ffffff; fill-rule: ; opacity: 1;">n</tspan><tspan x="-114.97" y="8.98" style="stroke: none; stroke-width: 0; stroke-dasharray: none; stroke-linecap: butt; stroke-linejoin: miter; stroke-miterlimit: 4; fill: #ffffff; fill-rule: ; opacity: 1;">s</tspan><tspan x="-95.89" y="8.98" style="stroke: none; stroke-width: 0; stroke-dasharray: none; stroke-linecap: butt; stroke-linejoin: miter; stroke-miterlimit: 4; fill: #ffffff; fill-rule: ; opacity: 1;">t</tspan><tspan x="-81.77" y="8.98" style="stroke: none; stroke-width: 0; stroke-dasharray: none; stroke-linecap: butt; stroke-linejoin: miter; stroke-miterlimit: 4; fill: #ffffff; fill-rule: ; opacity: 1;">i</tspan><tspan x="-71.65" y="8.98" style="stroke: none; stroke-width: 0; stroke-dasharray: none; stroke-linecap: butt; stroke-linejoin: miter; stroke-miterlimit: 4; fill: #ffffff; fill-rule: ; opacity: 1;">t</tspan><tspan x="-57.53" y="8.98" style="stroke: none; stroke-width: 0; stroke-dasharray: none; stroke-linecap: butt; stroke-linejoin: miter; stroke-miterlimit: 4; fill: #ffffff; fill-rule: ; opacity: 1;">u</tspan><tspan x="-32.98" y="8.98" style="stroke: none; stroke-width: 0; stroke-dasharray: none; stroke-linecap: butt; stroke-linejoin: miter; stroke-miterlimit: 4; fill: #ffffff; fill-rule: ; opacity: 1;">t</tspan><tspan x="-18.86" y="8.98" style="stroke: none; stroke-width: 0; stroke-dasharray: none; stroke-linecap: butt; stroke-linejoin: miter; stroke-miterlimit: 4; fill: #ffffff; fill-rule: ; opacity: 1;">e</tspan><tspan x="3.58" y="8.98" style="stroke: none; stroke-width: 0; stroke-dasharray: none; stroke-linecap: butt; stroke-linejoin: miter; stroke-miterlimit: 4; fill: #ffffff; fill-rule: ; opacity: 1;"> </tspan><tspan x="13.97" y="8.98" style="stroke: none; stroke-width: 0; stroke-dasharray: none; stroke-linecap: butt; stroke-linejoin: miter; stroke-miterlimit: 4; fill: #ffffff; fill-rule: ; opacity: 1;">o</tspan><tspan x="38.13" y="8.98" style="stroke: none; stroke-width: 0; stroke-dasharray: none; stroke-linecap: butt; stroke-linejoin: miter; stroke-miterlimit: 4; fill: #ffffff; fill-rule: ; opacity: 1;">f</tspan><tspan x="51.69" y="8.98" style="stroke: none; stroke-width: 0; stroke-dasharray: none; stroke-linecap: butt; stroke-linejoin: miter; stroke-miterlimit: 4; fill: #ffffff; fill-rule: ; opacity: 1;"> </tspan><tspan x="62.08" y="8.98" style="stroke: none; stroke-width: 0; stroke-dasharray: none; stroke-linecap: butt; stroke-linejoin: miter; stroke-miterlimit: 4; fill: #ffffff; fill-rule: ; opacity: 1;">P</tspan><tspan x="86.16" y="8.98" style="stroke: none; stroke-width: 0; stroke-dasharray: none; stroke-linecap: butt; stroke-linejoin: miter; stroke-miterlimit: 4; fill: #ffffff; fill-rule: ; opacity: 1;">a</tspan><tspan x="108.41" y="8.98" style="stroke: none; stroke-width: 0; stroke-dasharray: none; stroke-linecap: butt; stroke-linejoin: miter; stroke-miterlimit: 4; fill: #ffffff; fill-rule: ; opacity: 1;">r</tspan><tspan x="124.74" y="8.98" style="stroke: none; stroke-width: 0; stroke-dasharray: none; stroke-linecap: butt; stroke-linejoin: miter; stroke-miterlimit: 4; fill: #ffffff; fill-rule: ; opacity: 1;">a</tspan><tspan x="146.98" y="8.98" style="stroke: none; stroke-width: 0; stroke-dasharray: none; stroke-linecap: butt; stroke-linejoin: miter; stroke-miterlimit: 4; fill: #ffffff; fill-rule: ; opacity: 1;">m</tspan><tspan x="184.19" y="8.98" style="stroke: none; stroke-width: 0; stroke-dasharray: none; stroke-linecap: butt; stroke-linejoin: miter; stroke-miterlimit: 4; fill: #ffffff; fill-rule: ; opacity: 1;">e</tspan><tspan x="206.63" y="8.98" style="stroke: none; stroke-width: 0; stroke-dasharray: none; stroke-linecap: butt; stroke-linejoin: miter; stroke-miterlimit: 4; fill: #ffffff; fill-rule: ; opacity: 1;">d</tspan><tspan x="231.14" y="8.98" style="stroke: none; stroke-width: 0; stroke-dasharray: none; stroke-linecap: butt; stroke-linejoin: miter; stroke-miterlimit: 4; fill: #ffffff; fill-rule: ; opacity: 1;">i</tspan><tspan x="241.26" y="8.98" style="stroke: none; stroke-width: 0; stroke-dasharray: none; stroke-linecap: butt; stroke-linejoin: miter; stroke-miterlimit: 4; fill: #ffffff; fill-rule: ; opacity: 1;">c</tspan><tspan x="260.3" y="8.98" style="stroke: none; stroke-width: 0; stroke-dasharray: none; stroke-linecap: butt; stroke-linejoin: miter; stroke-miterlimit: 4; fill: #ffffff; fill-rule: ; opacity: 1;">a</tspan><tspan x="282.55" y="8.98" style="stroke: none; stroke-width: 0; stroke-dasharray: none; stroke-linecap: butt; stroke-linejoin: miter; stroke-miterlimit: 4; fill: #ffffff; fill-rule: ; opacity: 1;">l</tspan></text>
 </g>
<g style="stroke: none; stroke-width: 1; stroke-dasharray: none; stroke-linecap: butt; stroke-linejoin: miter; stroke-miterlimit: 10; fill: none; fill-rule: nonzero; opacity: 1;" transform="translate(26.40999999999997 10) scale(0.08 0.07)" >
  <path d="M 491.108 285.12 l -224.422 68.395 h -21.373 h -0.001 L 20.892 285.12 l -10.687 32.06 l 224.422 68.395 l 0 0 c 0 11.805 9.569 21.374 21.374 21.374 l 0 0 c 11.805 0 21.373 -9.569 21.373 -21.374 l 0 0 l 224.422 -68.395 L 491.108 285.12 z" style="stroke: none; stroke-width: 1; stroke-dasharray: none; stroke-linecap: butt; stroke-linejoin: miter; stroke-miterlimit: 10; fill: #ffba3b; fill-rule: nonzero; opacity: 1;" transform=" matrix(1 0 0 1 0 0) " stroke-linecap="round" />
  <path d="M 496.242 275.176 L 265.493 345.5 h -18.987 L 15.758 275.176 L 0 322.449 l 227.255 69.259 c 2.828 13.271 14.642 23.257 28.744 23.257 c 14.102 0 25.916 -9.986 28.744 -23.257 l 227.255 -69.259 L 496.242 275.176 z M 269.358 379.639 v 5.936 c 0 7.366 -5.992 13.358 -13.358 13.358 c -7.366 0 -13.358 -5.992 -13.358 -13.358 v -5.936 L 20.41 311.911 l 5.616 -16.848 l 216.952 66.118 l 1.142 0.348 h 23.761 l 218.094 -66.466 l 5.616 16.848 L 269.358 379.639 z" style="stroke: none; stroke-width: 1; stroke-dasharray: none; stroke-linecap: butt; stroke-linejoin: miter; stroke-miterlimit: 10; fill: #ffffff; fill-rule: nonzero; opacity: 1;" transform=" matrix(1 0 0 1 0 0) " stroke-linecap="round" />
  <polygon points="238.44,317.67 245.64,310.85 251.34,308.63 260.65,308.63 266.36,310.85 273.56,317.67 276.63,325.41 483.38,243.41 477.47,228.51 293.56,301.45 421.71,166.26 410.07,155.23 284.2,288.03 348.96,121.31 334.02,115.5 264.01,295.72 264.01,97.03 247.99,97.03 247.99,295.72 177.98,115.5 163.03,121.31 227.8,288.03 101.93,155.23 90.29,166.26 218.44,301.45 34.53,228.51 28.62,243.41 235.37,325.41 " style="stroke: none; stroke-width: 1; stroke-dasharray: none; stroke-linecap: butt; stroke-linejoin: miter; stroke-miterlimit: 10; fill: #ffffff; fill-rule: nonzero; opacity: 1;" transform="  matrix(1 0 0 1 0 0) "/>
</g>
  <g transform="translate(259.11 66.64) scale(0.51 0.51)">
   <text font-family="Open Sans" font-size="40" font-weight="bold" style="stroke: none; stroke-width: 1; stroke-dasharray: none; stroke-linecap: butt; stroke-linejoin: miter; stroke-miterlimit: 10; fill: #ffba3b; fill-rule: nonzero; opacity: 1;" ><tspan x="-287.2" y="8.98" style="stroke: none; stroke-width: 0; stroke-dasharray: none; stroke-linecap: butt; stroke-linejoin: miter; stroke-miterlimit: 4; fill: #ffba3b; fill-rule: ; opacity: 1;">&amp;</tspan><tspan x="-258" y="8.98" style="stroke: none; stroke-width: 0; stroke-dasharray: none; stroke-linecap: butt; stroke-linejoin: miter; stroke-miterlimit: 4; fill: #ffba3b; fill-rule: ; opacity: 1;"> </tspan><tspan x="-247.61" y="8.98" style="stroke: none; stroke-width: 0; stroke-dasharray: none; stroke-linecap: butt; stroke-linejoin: miter; stroke-miterlimit: 4; fill: #ffba3b; fill-rule: ; opacity: 1;">A</tspan><tspan x="-222.29" y="8.98" style="stroke: none; stroke-width: 0; stroke-dasharray: none; stroke-linecap: butt; stroke-linejoin: miter; stroke-miterlimit: 4; fill: #ffba3b; fill-rule: ; opacity: 1;">l</tspan><tspan x="-212.18" y="8.98" style="stroke: none; stroke-width: 0; stroke-dasharray: none; stroke-linecap: butt; stroke-linejoin: miter; stroke-miterlimit: 4; fill: #ffba3b; fill-rule: ; opacity: 1;">l</tspan><tspan x="-202.06" y="8.98" style="stroke: none; stroke-width: 0; stroke-dasharray: none; stroke-linecap: butt; stroke-linejoin: miter; stroke-miterlimit: 4; fill: #ffba3b; fill-rule: ; opacity: 1;">i</tspan><tspan x="-191.94" y="8.98" style="stroke: none; stroke-width: 0; stroke-dasharray: none; stroke-linecap: butt; stroke-linejoin: miter; stroke-miterlimit: 4; fill: #ffba3b; fill-rule: ; opacity: 1;">e</tspan><tspan x="-169.5" y="8.98" style="stroke: none; stroke-width: 0; stroke-dasharray: none; stroke-linecap: butt; stroke-linejoin: miter; stroke-miterlimit: 4; fill: #ffba3b; fill-rule: ; opacity: 1;">d</tspan><tspan x="-144.99" y="8.98" style="stroke: none; stroke-width: 0; stroke-dasharray: none; stroke-linecap: butt; stroke-linejoin: miter; stroke-miterlimit: 4; fill: #ffba3b; fill-rule: ; opacity: 1;"> </tspan><tspan x="-134.6" y="8.98" style="stroke: none; stroke-width: 0; stroke-dasharray: none; stroke-linecap: butt; stroke-linejoin: miter; stroke-miterlimit: 4; fill: #ffba3b; fill-rule: ; opacity: 1;">H</tspan><tspan x="-105.09" y="8.98" style="stroke: none; stroke-width: 0; stroke-dasharray: none; stroke-linecap: butt; stroke-linejoin: miter; stroke-miterlimit: 4; fill: #ffba3b; fill-rule: ; opacity: 1;">e</tspan><tspan x="-82.65" y="8.98" style="stroke: none; stroke-width: 0; stroke-dasharray: none; stroke-linecap: butt; stroke-linejoin: miter; stroke-miterlimit: 4; fill: #ffba3b; fill-rule: ; opacity: 1;">a</tspan><tspan x="-60.4" y="8.98" style="stroke: none; stroke-width: 0; stroke-dasharray: none; stroke-linecap: butt; stroke-linejoin: miter; stroke-miterlimit: 4; fill: #ffba3b; fill-rule: ; opacity: 1;">l</tspan><tspan x="-50.28" y="8.98" style="stroke: none; stroke-width: 0; stroke-dasharray: none; stroke-linecap: butt; stroke-linejoin: miter; stroke-miterlimit: 4; fill: #ffba3b; fill-rule: ; opacity: 1;">t</tspan><tspan x="-36.16" y="8.98" style="stroke: none; stroke-width: 0; stroke-dasharray: none; stroke-linecap: butt; stroke-linejoin: miter; stroke-miterlimit: 4; fill: #ffba3b; fill-rule: ; opacity: 1;">h</tspan><tspan x="-11.61" y="8.98" style="stroke: none; stroke-width: 0; stroke-dasharray: none; stroke-linecap: butt; stroke-linejoin: miter; stroke-miterlimit: 4; fill: #ffba3b; fill-rule: ; opacity: 1;"> </tspan><tspan x="-1.22" y="8.98" style="stroke: none; stroke-width: 0; stroke-dasharray: none; stroke-linecap: butt; stroke-linejoin: miter; stroke-miterlimit: 4; fill: #ffba3b; fill-rule: ; opacity: 1;">S</tspan><tspan x="20.73" y="8.98" style="stroke: none; stroke-width: 0; stroke-dasharray: none; stroke-linecap: butt; stroke-linejoin: miter; stroke-miterlimit: 4; fill: #ffba3b; fill-rule: ; opacity: 1;">c</tspan><tspan x="39.78" y="8.98" style="stroke: none; stroke-width: 0; stroke-dasharray: none; stroke-linecap: butt; stroke-linejoin: miter; stroke-miterlimit: 4; fill: #ffba3b; fill-rule: ; opacity: 1;">i</tspan><tspan x="49.89" y="8.98" style="stroke: none; stroke-width: 0; stroke-dasharray: none; stroke-linecap: butt; stroke-linejoin: miter; stroke-miterlimit: 4; fill: #ffba3b; fill-rule: ; opacity: 1;">e</tspan><tspan x="72.33" y="8.98" style="stroke: none; stroke-width: 0; stroke-dasharray: none; stroke-linecap: butt; stroke-linejoin: miter; stroke-miterlimit: 4; fill: #ffba3b; fill-rule: ; opacity: 1;">n</tspan><tspan x="96.88" y="8.98" style="stroke: none; stroke-width: 0; stroke-dasharray: none; stroke-linecap: butt; stroke-linejoin: miter; stroke-miterlimit: 4; fill: #ffba3b; fill-rule: ; opacity: 1;">c</tspan><tspan x="115.93" y="8.98" style="stroke: none; stroke-width: 0; stroke-dasharray: none; stroke-linecap: butt; stroke-linejoin: miter; stroke-miterlimit: 4; fill: #ffba3b; fill-rule: ; opacity: 1;">e</tspan><tspan x="138.37" y="8.98" style="stroke: none; stroke-width: 0; stroke-dasharray: none; stroke-linecap: butt; stroke-linejoin: miter; stroke-miterlimit: 4; fill: #ffba3b; fill-rule: ; opacity: 1;"> </tspan><tspan x="148.76" y="8.98" style="stroke: none; stroke-width: 0; stroke-dasharray: none; stroke-linecap: butt; stroke-linejoin: miter; stroke-miterlimit: 4; fill: #ffba3b; fill-rule: ; opacity: 1;">K</tspan><tspan x="173.31" y="8.98" style="stroke: none; stroke-width: 0; stroke-dasharray: none; stroke-linecap: butt; stroke-linejoin: miter; stroke-miterlimit: 4; fill: #ffba3b; fill-rule: ; opacity: 1;">o</tspan><tspan x="197.47" y="8.98" style="stroke: none; stroke-width: 0; stroke-dasharray: none; stroke-linecap: butt; stroke-linejoin: miter; stroke-miterlimit: 4; fill: #ffba3b; fill-rule: ; opacity: 1;">l</tspan><tspan x="207.59" y="8.98" style="stroke: none; stroke-width: 0; stroke-dasharray: none; stroke-linecap: butt; stroke-linejoin: miter; stroke-miterlimit: 4; fill: #ffba3b; fill-rule: ; opacity: 1;">k</tspan><tspan x="228.58" y="8.98" style="stroke: none; stroke-width: 0; stroke-dasharray: none; stroke-linecap: butt; stroke-linejoin: miter; stroke-miterlimit: 4; fill: #ffba3b; fill-rule: ; opacity: 1;">a</tspan><tspan x="250.83" y="8.98" style="stroke: none; stroke-width: 0; stroke-dasharray: none; stroke-linecap: butt; stroke-linejoin: miter; stroke-miterlimit: 4; fill: #ffba3b; fill-rule: ; opacity: 1;">t</tspan><tspan x="264.95" y="8.98" style="stroke: none; stroke-width: 0; stroke-dasharray: none; stroke-linecap: butt; stroke-linejoin: miter; stroke-miterlimit: 4; fill: #ffba3b; fill-rule: ; opacity: 1;">a</tspan></text>
 </g>
<g style="stroke: none; stroke-width: 1; stroke-dasharray: none; stroke-linecap: butt; stroke-linejoin: miter; stroke-miterlimit: 10; fill: #006699; fill-rule: nonzero; opacity: 1;" transform="translate(10 10) scale(0.14 0.14)" >
  <path d="M 115.1 447.967 c 11.822 11.658 28.049 18.859 45.964 18.859 c 36.16 0 65.474 -29.314 65.474 -65.474 c 0 -17.915 -7.202 -34.142 -18.859 -45.964 l -72.805 20.425 L 115.1 447.967 z" style="stroke: none; stroke-width: 1; stroke-dasharray: none; stroke-linecap: butt; stroke-linejoin: miter; stroke-miterlimit: 10; fill: #7F8383; fill-rule: nonzero; opacity: 1;" transform=" matrix(1 0 0 1 0 0) " stroke-linecap="round" />
  <path d="M 161.066 335.879 c -18.08 0 -34.449 7.328 -46.297 19.177 l 46.623 46.623 l 46.289 -46.289 C 195.806 343.348 179.311 335.879 161.066 335.879 z" style="stroke: none; stroke-width: 1; stroke-dasharray: none; stroke-linecap: butt; stroke-linejoin: miter; stroke-miterlimit: 10; fill: #5F6568; fill-rule: nonzero; opacity: 1;" transform=" matrix(1 0 0 1 0 0) " stroke-linecap="round" />
  <path d="M 95.592 401.353 c 0 18.246 7.469 34.742 19.51 46.615 l 46.289 -46.289 l -46.623 -46.623 C 102.919 366.903 95.592 383.272 95.592 401.353 z" style="stroke: none; stroke-width: 1; stroke-dasharray: none; stroke-linecap: butt; stroke-linejoin: miter; stroke-miterlimit: 10; fill: #A4A49E; fill-rule: nonzero; opacity: 1;" transform=" matrix(1 0 0 1 0 0) " stroke-linecap="round" />
  <path d="M 265.825 293.487 c -45.168 0 -85.986 -24.918 -106.524 -65.03 c -22.404 -43.754 -34.246 -92.869 -34.246 -142.031 c 0 -17.74 10.569 -34.151 30.565 -47.46 c 4.512 -3.007 10.612 -1.782 13.616 2.734 c 3.005 4.515 1.781 10.612 -2.734 13.616 c -9.947 6.622 -21.804 17.394 -21.804 31.109 c 0 46.064 11.097 92.082 32.088 133.079 c 17.421 34.026 50.707 54.34 89.04 54.34 s 71.618 -20.314 89.04 -54.34 c 20.991 -40.997 32.088 -87.015 32.088 -133.079 c 0 -13.717 -11.859 -24.487 -21.804 -31.109 c -4.515 -3.005 -5.739 -9.101 -2.734 -13.616 c 3.004 -4.516 9.101 -5.741 13.616 -2.734 c 19.995 13.308 30.565 29.721 30.565 47.46 c 0 49.162 -11.842 98.277 -34.246 142.031 C 351.811 268.568 310.993 293.487 265.825 293.487 z" style="stroke: none; stroke-width: 1; stroke-dasharray: none; stroke-linecap: butt; stroke-linejoin: miter; stroke-miterlimit: 10; fill: #A4A49E; fill-rule: nonzero; opacity: 1;" transform=" matrix(1 0 0 1 0 0) " stroke-linecap="round" />
  <path d="M 331.299 341.775 c -23.297 0 -42.577 -17.478 -45.45 -40.006 c 23.242 -3.583 44.766 -13.337 62.519 -28.014 c 10.651 -8.806 19.945 -19.384 27.436 -31.464 c 3.05 -4.917 1.332 -11.381 -3.82 -14.018 l -13.308 -6.813 c -5.595 -2.865 -10.173 -0.065 -10.173 6.22 l 0 0 c -19.007 26.8 -49.826 42.725 -82.682 42.725 s -63.674 -15.925 -82.682 -42.725 c 0 -6.286 -4.578 -9.085 -10.173 -6.22 l -13.308 6.813 c -5.153 2.637 -6.868 9.104 -3.817 14.022 c 20.088 32.388 53.128 53.973 90.565 59.562 l 30.209 41.821 c 11.313 15.661 29.457 24.938 48.777 24.938 l 0 0 c 15.55 0 30.497 6.02 41.704 16.798 l 0 0 c 10.591 10.184 16.577 24.243 16.577 38.936 c 0 18.356 -9.174 35.499 -24.448 45.681 l 0 0 c -9.6 6.399 -21.104 9.317 -32.594 8.264 c -30.072 -2.757 -58.195 -14.357 -82.411 -31.848 c -0.038 0.067 -0.075 0.134 -0.001 0 c -6.413 -4.286 -12.545 -9.068 -18.347 -14.328 l -34.692 -30.44 l -26.844 29.793 l 37.276 31.653 c 35.233 31.058 79.845 48.272 127.137 48.869 c 47.11 0.594 87.267 -37.265 87.661 -84.377 C 416.807 380.351 378.472 341.775 331.299 341.775 z" style="stroke: none; stroke-width: 1; stroke-dasharray: none; stroke-linecap: butt; stroke-linejoin: miter; stroke-miterlimit: 10; fill: #ffffff; fill-rule: nonzero; opacity: 1;" transform=" matrix(1 0 0 1 0 0) " stroke-linecap="round" />
  <path d="M 173.313 233.206 c 20.364 32.068 54.082 50.461 92.51 50.461 s 72.147 -18.393 92.51 -50.461 l 5.713 -8.999 l -9.595 -4.913 c -4.474 -2.292 -10.006 -0.863 -12.699 3.381 c -16.541 26.051 -44.333 41.348 -75.928 41.348 s -59.388 -15.297 -75.928 -41.348 c -2.695 -4.244 -8.225 -5.671 -12.699 -3.381 l -9.595 4.913 L 173.313 233.206 z" style="stroke: none; stroke-width: 1; stroke-dasharray: none; stroke-linecap: butt; stroke-linejoin: miter; stroke-miterlimit: 10; fill: #ffba33; fill-rule: nonzero; opacity: 1;" transform=" matrix(1 0 0 1 0 0) " stroke-linecap="round" />
  <path d="M 331.299 361.418 c -27.483 0 -51.371 -17.225 -60.96 -41.676 c -3.931 -10.025 -13.185 -17.141 -23.927 -17.886 c 3.083 44.151 39.968 79.204 84.887 79.204 c 25.256 0 45.806 20.535 45.832 45.785 c 0.026 25.301 -21.57 46.038 -46.87 45.875 c -31.079 -0.199 -60.743 -9.368 -86.036 -26.275 c -0.031 0.058 -0.064 0.115 -0.096 0.173 c -5.487 9.885 -1.743 22.26 8.374 27.307 c 23.82 11.88 50.215 18.252 77.565 18.436 c 0.145 0 0.292 0.001 0.436 0.001 c 17.372 0 34.443 -7.074 46.901 -19.45 c 12.493 -12.41 19.371 -28.758 19.369 -46.032 C 396.768 390.784 367.396 361.418 331.299 361.418 z" style="stroke: none; stroke-width: 1; stroke-dasharray: none; stroke-linecap: butt; stroke-linejoin: miter; stroke-miterlimit: 10; fill: #ffba33; fill-rule: nonzero; opacity: 1;" transform=" matrix(1 0 0 1 0 0) " stroke-linecap="round" />
  <path d="M 161.066 365.342 c -19.856 0 -36.011 16.155 -36.011 36.011 c 0 19.856 16.155 36.011 36.011 36.011 s 36.011 -16.155 36.011 -36.011 C 197.077 381.497 180.922 365.342 161.066 365.342 z" style="stroke: none; stroke-width: 1; stroke-dasharray: none; stroke-linecap: butt; stroke-linejoin: miter; stroke-miterlimit: 10; fill: #ffba3b; fill-rule: nonzero; opacity: 1;" transform=" matrix(1 0 0 1 0 0) " stroke-linecap="round" />
  <path d="M 161.066 384.984 c -9.026 0 -16.369 7.342 -16.369 16.369 c 0 9.026 7.342 16.369 16.369 16.369 c 9.026 0 16.369 -7.342 16.369 -16.369 C 177.434 392.327 170.091 384.984 161.066 384.984 z" style="stroke: none; stroke-width: 1; stroke-dasharray: none; stroke-linecap: butt; stroke-linejoin: miter; stroke-miterlimit: 10; fill: #7F8383; fill-rule: nonzero; opacity: 1;" transform=" matrix(1 0 0 1 0 0) " stroke-linecap="round" />
  <path d="M 329.307 0.016 c 11.743 -0.405 21.812 6.733 25.612 16.835 l 16.101 7.871 c 4.871 2.382 6.846 8.173 4.41 12.936 l -8.821 17.247 c -2.436 4.763 -8.36 6.693 -13.231 4.312 l -17.287 -8.45 c -1.879 0.416 -3.828 0.657 -5.836 0.657 c -15.008 0 -27.08 -12.291 -26.26 -27.139 C 304.724 11.147 315.859 0.48 329.307 0.016 z" style="stroke: none; stroke-width: 1; stroke-dasharray: none; stroke-linecap: butt; stroke-linejoin: miter; stroke-miterlimit: 10; fill: #ffba3b; fill-rule: nonzero; opacity: 1;" transform=" matrix(1 0 0 1 0 0) " stroke-linecap="round" />
  <circle cx="323.44500000000005" cy="21.605" r="13.095" style="stroke: none; stroke-width: 1; stroke-dasharray: none; stroke-linecap: butt; stroke-linejoin: miter; stroke-miterlimit: 10; fill: #4E565A; fill-rule: nonzero; opacity: 1;" transform="  matrix(1 0 0 1 0 0) "/>
  <path d="M 202.341 0.016 c -11.743 -0.405 -21.812 6.733 -25.612 16.835 l -16.101 7.871 c -4.871 2.382 -6.846 8.173 -4.41 12.936 l 8.821 17.247 c 2.436 4.763 8.36 6.693 13.231 4.312 l 17.287 -8.45 c 1.879 0.416 3.828 0.657 5.836 0.657 c 15.008 0 27.08 -12.291 26.26 -27.139 C 226.924 11.147 215.789 0.48 202.341 0.016 z" style="stroke: none; stroke-width: 1; stroke-dasharray: none; stroke-linecap: butt; stroke-linejoin: miter; stroke-miterlimit: 10; fill: #ffba3b; fill-rule: nonzero; opacity: 1;" transform=" matrix(1 0 0 1 0 0) " stroke-linecap="round" />
  <circle cx="195.115" cy="21.605" r="13.095" style="stroke: none; stroke-width: 1; stroke-dasharray: none; stroke-linecap: butt; stroke-linejoin: miter; stroke-miterlimit: 10; fill: #4E565A; fill-rule: nonzero; opacity: 1;" transform="  matrix(1 0 0 1 0 0) "/>
</g>
</svg>